<svg xmlns="http://www.w3.org/2000/svg" viewBox="0 0 110.78888 79"><defs><style>.cls-1{fill:#b6e1db;}.cls-2{fill:#eeeae6;}.cls-3{fill:#020202;opacity:0.22;}.cls-4{fill:#a1237c;}.cls-5{fill:#db8fbd;}.cls-6{fill:#f3d7e8;}</style></defs><title>logo</title><g id="Layer_2" data-name="Layer 2"><ellipse class="cls-1" cx="270.16792" cy="-526.62441" rx="249.4251" ry="211.74704"/></g><g id="Layer_3" data-name="Layer 3"><ellipse class="cls-2" cx="521.61762" cy="-616.23341" rx="81.94056" ry="56.55053"/></g><g id="Layer_9" data-name="Layer 9"><g id="Layer_8" data-name="Layer 8"><path class="cls-3" d="M45.71716,29.83119c-12.46306-.4424-22.07447.18932-25.20346,6.81121.3006.58318.61556,1.16238.95031,1.7356a37.95117,37.95117,0,0,0,60.92138,6.28329C84.30208,27.31671,54.77359,30.15266,45.71716,29.83119Z"/><path class="cls-4" d="M46.71716,26.83119c-12.46306-.4424-22.07447.18932-25.20346,6.81121.3006.58318.61556,1.16238.95031,1.7356a37.95117,37.95117,0,0,0,60.92138,6.28329C85.30208,24.31671,55.77359,27.15266,46.71716,26.83119Z"/><path class="cls-5" d="M47.03592,27.238c-11.50178-.40828-20.37187.17472-23.25952,6.28586.27741.5382.56808,1.07273.877,1.60174a35.024,35.024,0,0,0,56.22252,5.79866C82.64478,24.91744,55.39382,27.53466,47.03592,27.238Z"/><path class="cls-6" d="M48.37124,29.80274c-8.90172-.316-15.76666.13522-18.00153,4.86489.2147.41654.43966.83023.67876,1.23965a27.10656,27.10656,0,0,0,43.513,4.48783C75.93046,28.00677,54.83978,30.03235,48.37124,29.80274Z"/><path class="cls-5" d="M48.80817,30.64195c-8.051-.28578-14.25979.1223-16.28107,4.39994.19418.37673.39764.75088.61389,1.12118A24.51591,24.51591,0,0,0,72.49532,40.222C73.73347,29.01763,54.65849,30.84961,48.80817,30.64195Z"/><path class="cls-6" d="M50.45945,33.81356c-4.83568-.17165-8.56493.07346-9.779,2.64276.11663.22628.23884.451.36872.67342a14.72511,14.72511,0,0,0,23.63758,2.43793C65.43045,32.83794,53.97336,33.93829,50.45945,33.81356Z"/><path class="cls-5" d="M51.09418,35.03268c-3.59978-.12778-6.3759.05468-7.27966,1.96732.08682.16844.1778.33574.27448.5013a10.96166,10.96166,0,0,0,17.59627,1.81484C62.23888,34.30641,53.71,35.12553,51.09418,35.03268Z"/><path class="cls-6" d="M52.16438,37.08822c-1.51594-.05381-2.685.023-3.06562.82848.03656.07094.07487.14139.11559.21111a4.61618,4.61618,0,0,0,7.41016.76427C56.85765,36.78237,53.266,37.12732,52.16438,37.08822Z"/></g></g></svg>