<svg id="Layer_2" data-name="Layer 2" xmlns="http://www.w3.org/2000/svg" viewBox="0 0 173 173"><defs><style>.cls-1{fill:#231f20;stroke:#231f20;stroke-miterlimit:10;}</style></defs><title>delete-hover</title><path class="cls-1" d="M397,108a86,86,0,1,0,86,86A86,86,0,0,0,397,108Zm0,162a76,76,0,1,1,76-76A76,76,0,0,1,397,270Z" transform="translate(-310.5 -107.5)"/><path class="cls-1" d="M415.19452,199l24.265-24.265a12.03525,12.03525,0,0,0,0-16.97058l-1.224-1.22394a12.03518,12.03518,0,0,0-16.97052,0L397,180.80548l-24.265-24.265a12.03518,12.03518,0,0,0-16.97052,0l-1.224,1.22394a12.03525,12.03525,0,0,0,0,16.97058L378.80548,199l-24.265,24.26489a12.03525,12.03525,0,0,0,0,16.97058l1.224,1.224a12.03518,12.03518,0,0,0,16.97052,0L397,217.19452l24.265,24.265a12.03518,12.03518,0,0,0,16.97052,0l1.224-1.224a12.03525,12.03525,0,0,0,0-16.97058Z" transform="translate(-310.5 -107.5)"/></svg>