<svg id="Layer_3" data-name="Layer 3" xmlns="http://www.w3.org/2000/svg" viewBox="0 0 301.21906 301.21906"><defs><style>.cls-1,.cls-2,.cls-4{stroke:#231f20;stroke-miterlimit:10;}.cls-2,.cls-3{fill:#231f20;}.cls-4{fill:#fff;}</style></defs><title>edit-hover</title><path class="cls-1" d="M443.945,203.59283A150.10953,150.10953,0,1,0,594.0545,353.70239,150.10955,150.10955,0,0,0,443.945,203.59283Zm0,288.75043A138.6409,138.6409,0,1,1,582.58594,353.70239,138.64091,138.64091,0,0,1,443.945,492.34326Z" transform="translate(-293.33545 -203.09283)"/><rect class="cls-2" x="356.89238" y="340.76536" width="207" height="32" transform="translate(-402.17571 277.0292) rotate(-50)"/><rect class="cls-3" x="362.91594" y="344.28987" width="199.66667" height="19.33333" transform="translate(-399.18211 277.83133) rotate(-50)"/><polygon class="cls-2" points="88.272 222.674 79.531 257.982 112.785 243.243 88.272 222.674"/><polygon class="cls-4" points="88.738 228.722 82.316 254.663 106.748 243.834 88.738 228.722"/><path class="cls-2" d="M516.59255,264.897l24.51342,20.5692a16,16,0,0,0-24.51342-20.5692Z" transform="translate(-293.33545 -203.09283)"/><path class="cls-4" d="M520.57982,265.8495l18.89576,15.85543a12.33333,12.33333,0,0,0-18.89576-15.85543Z" transform="translate(-293.33545 -203.09283)"/></svg>