<svg id="Layer_3" data-name="Layer 3" xmlns="http://www.w3.org/2000/svg" viewBox="0 0 300.21906 300.21906"><defs><style>.cls-1{fill:#231f20;stroke:#231f20;stroke-miterlimit:10;}.cls-2{fill:#f9f9fa;}</style></defs><title>edit</title><path d="M151.3819,202.59283A150.10953,150.10953,0,1,0,301.49146,352.70239,150.10949,150.10949,0,0,0,151.3819,202.59283Zm0,288.53937A138.42984,138.42984,0,1,1,289.81171,352.70239,138.42982,138.42982,0,0,1,151.3819,491.1322Z" transform="translate(-1.2724 -202.59283)"/><rect class="cls-1" x="60.55905" y="342.76536" width="207" height="32" transform="translate(-217.49869 51.23912) rotate(-50)"/><rect class="cls-2" x="66.27004" y="345.61958" width="201.41667" height="19.33333" transform="translate(-213.79071 52.23267) rotate(-50)"/><polygon class="cls-1" points="84.001 225.174 75.26 260.482 108.515 245.743 84.001 225.174"/><path class="cls-1" d="M220.25922,266.897l24.51342,20.5692a16,16,0,0,0-24.51342-20.5692Z" transform="translate(-1.2724 -202.59283)"/></svg>