<svg id="Layer_1" data-name="Layer 1" xmlns="http://www.w3.org/2000/svg" viewBox="0 0 265.31221 265.31221"><defs><style>.cls-1,.cls-3{fill:#050606;}.cls-2{fill:#fff;stroke:#050606;}.cls-2,.cls-3,.cls-4{stroke-miterlimit:10;stroke-width:5px;}.cls-3,.cls-4{stroke:#fff;}.cls-4{fill:#020202;}</style></defs><title>read</title><circle class="cls-1" cx="132.6561" cy="132.6561" r="132.6561"/><path class="cls-2" d="M567.2874,410.09806h97.057V530.62641s-43.92945-9.745-57.72673-9.745c-10.467,0-39.3303,9.745-39.3303,9.745Z" transform="translate(-531.68833 -329.96379)"/><path class="cls-3" d="M664.34444,530.62641s-35.16261-15.85936-46.2992-17.76207c-9.87014-1.68634-36.80193,4.44052-36.80193,4.44052V398.04523s21.95616-4.55018,31.45971-3.1718c11.27173,1.63483,51.64141,15.22463,51.64141,15.22463Z" transform="translate(-531.68833 -329.96379)"/><path class="cls-2" d="M764.57327,410.09806h-97.057V530.62641s43.92945-9.745,57.72673-9.745c10.467,0,39.3303,9.745,39.3303,9.745Z" transform="translate(-531.68833 -329.96379)"/><path class="cls-4" d="M667.51623,530.62641s35.16261-15.85936,46.2992-17.76207c9.87014-1.68634,36.80193,4.44052,36.80193,4.44052V398.04523s-21.95616-4.55018-31.45971-3.1718c-11.27173,1.63483-51.64141,15.22463-51.64141,15.22463Z" transform="translate(-531.68833 -329.96379)"/></svg>