<svg id="Layer_1" data-name="Layer 1" xmlns="http://www.w3.org/2000/svg" viewBox="0 0 265.31219 265.31219"><defs><style>.cls-1{fill:#050606;}.cls-2,.cls-3{fill:#fff;stroke-miterlimit:10;stroke-width:5px;}.cls-2{stroke:#050606;}.cls-3{stroke:#231f20;}</style></defs><title>unread</title><path class="cls-1" d="M160.61157,321.6593A132.6561,132.6561,0,1,0,293.26764,454.31537,132.65609,132.65609,0,0,0,160.61157,321.6593Zm0,254.6626A122.00653,122.00653,0,1,1,282.6181,454.31537,122.00648,122.00648,0,0,1,160.61157,576.3219Z" transform="translate(-27.95544 -321.6593)"/><path class="cls-2" d="M60.38271,410.05047h97.057V530.57882s-43.92945-9.745-57.72673-9.745c-10.467,0-39.3303,9.745-39.3303,9.745Z" transform="translate(-27.95544 -321.6593)"/><path class="cls-2" d="M157.43975,530.57882s-35.16261-15.85936-46.2992-17.76207c-9.87014-1.68634-36.80193,4.44052-36.80193,4.44052V397.99764s21.95616-4.55018,31.45971-3.1718c11.27173,1.63483,51.64141,15.22463,51.64141,15.22463Z" transform="translate(-27.95544 -321.6593)"/><path class="cls-2" d="M257.66858,410.05047h-97.057V530.57882s43.92945-9.745,57.72673-9.745c10.467,0,39.3303,9.745,39.3303,9.745Z" transform="translate(-27.95544 -321.6593)"/><path class="cls-3" d="M160.61155,530.57882s35.16261-15.85936,46.2992-17.76207c9.87014-1.68634,36.80193,4.44052,36.80193,4.44052V397.99764s-21.95616-4.55018-31.45971-3.1718c-11.27173,1.63483-51.64141,15.22463-51.64141,15.22463Z" transform="translate(-27.95544 -321.6593)"/></svg>