<svg id="Layer_1" data-name="Layer 1" xmlns="http://www.w3.org/2000/svg" viewBox="0 0 319 224.6"><defs><style>.cls-1{fill:#fff;stroke:#231f20;stroke-miterlimit:10;stroke-width:8px;}</style></defs><title>unread</title><path class="cls-1" d="M312,117H465V307s-69.25-15.36-91-15.36c-16.5,0-62,15.36-62,15.36Z" transform="translate(-308 -88.59)"/><path class="cls-1" d="M465,307s-55.43-25-73-28c-15.56-2.66-58,7-58,7V98s34.61-7.17,49.59-5C401.36,95.58,465,117,465,117Z" transform="translate(-308 -88.59)"/><path class="cls-1" d="M623,117H470V307s69.25-15.36,91-15.36c16.5,0,62,15.36,62,15.36Z" transform="translate(-308 -88.59)"/><path class="cls-1" d="M470,307s55.43-25,73-28c15.56-2.66,58,7,58,7V98s-34.61-7.17-49.59-5C533.64,95.58,470,117,470,117Z" transform="translate(-308 -88.59)"/></svg>